<svg xmlns="http://www.w3.org/2000/svg" width="15" height="15" viewBox="0 0 15 15">
  <path fill="#000000" d="M10.3406399,13.3480753 C12.3652682,12.3628035 13.8017471,10.3571046 13.9810552,8 L11.9903559,8 C11.9071919,10.1489182 11.2912572,12.0659326 10.3406399,13.3480753 Z M4.65936006,13.3480753 C3.70874277,12.0659326 3.09280812,10.1489182 3.00964407,8 L1.01894482,8 C1.19825292,10.3571046 2.63473177,12.3628035 4.65936006,13.3480753 Z M1.01894482,7 L3.00964407,7 C3.09280812,4.85108184 3.70874277,2.93406737 4.65936006,1.65192472 C2.63473177,2.63719651 1.19825292,4.64289537 1.01894482,7 Z M10.3406399,1.65192472 C11.2912572,2.93406737 11.9071919,4.85108184 11.9903559,7 L13.9810552,7 C13.8017471,4.64289537 12.3652682,2.63719651 10.3406399,1.65192472 Z M7,13.9304304 L7,8 L4.01047468,8 C4.1393569,11.0643556 5.44109952,13.4950619 7,13.9304304 Z M8,13.9304304 C9.55890048,13.4950619 10.8606431,11.0643556 10.9895253,8 L8,8 L8,13.9304304 Z M7,1.06956959 C5.44109952,1.50493812 4.1393569,3.93564441 4.01047468,7 L7,7 L7,1.06956959 Z M8,1.06956959 L8,7 L10.9895253,7 C10.8606431,3.93564441 9.55890048,1.50493812 8,1.06956959 Z M7.5,15 C3.35786438,15 0,11.6421356 0,7.5 C0,3.35786438 3.35786438,0 7.5,0 C11.6421356,0 15,3.35786438 15,7.5 C15,11.6421356 11.6421356,15 7.5,15 Z"/>
</svg>
